<svg width="35" height="35" viewBox="0 0 35 35" fill="none" xmlns="http://www.w3.org/2000/svg">
<path d="M12 6.5H12.6176C13.066 6.5 13.2904 6.5 13.5014 6.55066C13.6884 6.59557 13.868 6.66983 14.0321 6.77035C14.217 6.88369 14.3758 7.0425 14.6927 7.35938L20.3077 12.9744C20.6248 13.2915 20.7825 13.4491 20.8958 13.6341C20.9964 13.7982 21.0716 13.9775 21.1165 14.1646C21.1667 14.3734 21.1667 14.5951 21.1667 15.0344V28.5M12 6.5H3.93262C2.90585 6.5 2.39299 6.5 2.00081 6.69982C1.65585 6.87559 1.37559 7.15585 1.19982 7.50081C1 7.89299 1 8.40675 1 9.43351V31.0668C1 32.0936 1 32.6063 1.19982 32.9984C1.37559 33.3434 1.65585 33.6246 2.00081 33.8004C2.39261 34 2.90487 34 3.92966 34L18.2353 34C19.26 34 19.7742 34 20.166 33.8004C20.511 33.6246 20.7904 33.3438 20.9661 32.9989C21.166 32.6067 21.1667 32.0932 21.1667 31.0664V28.5M12 6.5V12.7333C12 13.7601 12 14.2731 12.1998 14.6653C12.3756 15.0103 12.6559 15.2913 13.0008 15.467C13.3926 15.6667 13.9049 15.6667 14.9296 15.6667H21.166M13.8333 6.50018V3.93351C13.8333 2.90675 13.8333 2.39299 14.0332 2.00081C14.2089 1.65585 14.4892 1.37559 14.8341 1.19982C15.2263 1 15.7392 1 16.766 1H24.8333M24.8333 1H25.4509C25.8993 1 26.1237 1 26.3347 1.05066C26.5218 1.09557 26.7014 1.16983 26.8654 1.27035C27.0503 1.38368 27.2092 1.54251 27.526 1.85938L33.1411 7.4744C33.4581 7.79148 33.6158 7.94913 33.7292 8.13415C33.8297 8.29818 33.905 8.47748 33.9499 8.66455C34 8.87339 34 9.09512 34 9.53445V25.5664C34 26.5932 33.9993 27.1067 33.7995 27.4989C33.6237 27.8439 33.3454 28.1246 33.0004 28.3004C32.6086 28.5 32.0952 28.5 31.0704 28.5H21.1667M24.8333 1V7.23333C24.8333 8.2601 24.8333 8.77312 25.0332 9.16529C25.2089 9.51026 25.4892 9.79127 25.8341 9.96704C26.2259 10.1667 26.7382 10.1667 27.7629 10.1667H33.9993" stroke="#173345" stroke-width="2" stroke-linecap="round" stroke-linejoin="round"/>
</svg>
