<svg width="33" height="29" viewBox="0 0 33 29" fill="none" xmlns="http://www.w3.org/2000/svg">
<path d="M3.47967 1.48145L29.4063 27.4081M23.7349 22.1513C21.5431 23.332 19.0658 24.1671 16.443 24.1671C10.7219 24.1671 5.69372 20.1937 2.8103 17.3272C2.04919 16.5705 1.66869 16.1922 1.42646 15.4496C1.25371 14.92 1.25365 13.9693 1.42646 13.4397C1.66876 12.6971 2.05005 12.3179 2.81267 11.5599C4.266 10.1154 6.26374 8.39024 8.62012 7.03422M28.5961 18.7121C29.1358 18.2374 29.6301 17.7704 30.0736 17.3296L30.0783 17.3246C30.8377 16.5698 31.2184 16.1914 31.4602 15.4504C31.633 14.9208 31.6327 13.9697 31.4599 13.4401C31.2178 12.6978 30.8368 12.3184 30.0762 11.5622C27.1928 8.69568 22.1641 4.72228 16.443 4.72228C15.8961 4.72228 15.3556 4.75859 14.8226 4.82676M18.5867 16.8754C18.0154 17.3796 17.2649 17.6856 16.443 17.6856C14.6531 17.6856 13.2022 16.2346 13.2022 14.4448C13.2022 13.5706 13.5483 12.7775 14.111 12.1946" stroke="black" stroke-width="2" stroke-linecap="round" stroke-linejoin="round"/>
</svg>
