<svg width="40" height="40" viewBox="0 0 40 40" fill="none" xmlns="http://www.w3.org/2000/svg">
<path d="M28.3333 33.3335C28.3333 30.5721 24.6024 28.3335 20 28.3335C15.3976 28.3335 11.6667 30.5721 11.6667 33.3335M35 28.3341C35 26.2838 32.9432 24.5217 30 23.7502M5 28.3341C5 26.2838 7.05683 24.5217 10 23.7502M30 17.0603C31.0229 16.1448 31.6667 14.8143 31.6667 13.3335C31.6667 10.5721 29.4281 8.3335 26.6667 8.3335C25.3861 8.3335 24.2179 8.81492 23.3333 9.60665M10 17.0603C8.97708 16.1448 8.33333 14.8143 8.33333 13.3335C8.33333 10.5721 10.5719 8.3335 13.3333 8.3335C14.6139 8.3335 15.7821 8.81492 16.6667 9.60665M20 23.3335C17.2386 23.3335 15 21.0949 15 18.3335C15 15.5721 17.2386 13.3335 20 13.3335C22.7614 13.3335 25 15.5721 25 18.3335C25 21.0949 22.7614 23.3335 20 23.3335Z" stroke="#E1A05B" stroke-width="2" stroke-linecap="round" stroke-linejoin="round"/>
</svg>
