<svg width="30" height="20" viewBox="0 0 30 20" fill="none" xmlns="http://www.w3.org/2000/svg">
<path d="M3 2.5L12.1615 8.26533L12.1645 8.26744C13.1818 8.88911 13.6907 9.20012 14.2481 9.32027C14.7408 9.42647 15.2588 9.42647 15.7515 9.32027C16.3094 9.20001 16.8198 8.88809 17.8389 8.26533C17.8389 8.26533 23.7151 4.50742 27 2.5M1.5 14.7502V5.25024C1.5 3.85011 1.5 3.14953 1.82698 2.61475C2.1146 2.14434 2.57321 1.76217 3.1377 1.52248C3.77943 1.25 4.62014 1.25 6.30029 1.25H23.7003C25.3805 1.25 26.2194 1.25 26.8611 1.52248C27.4256 1.76217 27.8857 2.14434 28.1733 2.61475C28.5 3.149 28.5 3.84874 28.5 5.24614V14.7545C28.5 16.1519 28.5 16.8506 28.1733 17.3849C27.8857 17.8553 27.4256 18.2381 26.8611 18.4778C26.22 18.75 25.3815 18.75 23.7046 18.75H6.29537C4.61849 18.75 3.7788 18.75 3.1377 18.4778C2.57321 18.2381 2.1146 17.8553 1.82698 17.3849C1.5 16.8501 1.5 16.1504 1.5 14.7502Z" stroke="black" stroke-width="2" stroke-linecap="round" stroke-linejoin="round"/>
</svg>
