<svg width="158" height="158" viewBox="0 0 158 158" fill="none" xmlns="http://www.w3.org/2000/svg">
<path d="M145.666 37.3333H127.738C123.593 37.3333 120.666 33.1458 120.666 29C120.666 15.1929 109.474 4 95.6665 4C81.8594 4 70.6666 15.1929 70.6666 29C70.6666 33.1458 67.7402 37.3333 63.5944 37.3333H45.6666C41.0642 37.3333 37.3333 41.0642 37.3333 45.6666V63.5944C37.3333 67.7403 33.1459 70.6666 29 70.6666C15.1929 70.6666 4 81.8594 4 95.6665C4 109.474 15.1929 120.666 29 120.666C33.1459 120.666 37.3333 123.593 37.3333 127.738V145.666C37.3333 150.269 41.0642 154 45.6666 154L145.666 154C150.269 154 154 150.269 154 145.666V127.738C154 123.593 149.812 120.666 145.666 120.666C131.859 120.666 120.666 109.474 120.666 95.6665C120.666 81.8594 131.859 70.6666 145.666 70.6666C149.812 70.6666 154 67.7403 154 63.5944L154 45.6666C154 41.0642 150.269 37.3333 145.666 37.3333Z" stroke="#1B3B50" stroke-width="8" stroke-linecap="round" stroke-linejoin="round"/>
</svg>
