<svg width="178" height="158" viewBox="0 0 178 158" fill="none" xmlns="http://www.w3.org/2000/svg">
<path d="M136.222 154C136.222 137.431 115.08 124 89 124C62.9199 124 41.7778 137.431 41.7778 154M174 124.004C174 111.702 162.345 101.129 145.667 96.5M4 124.004C4 111.702 15.6553 101.129 32.3333 96.5M145.667 56.3611C151.463 50.8679 155.111 42.885 155.111 34C155.111 17.4315 142.426 4 126.778 4C119.521 4 112.902 6.88854 107.889 11.6389M32.3333 56.3611C26.5368 50.8679 22.8889 42.885 22.8889 34C22.8889 17.4315 35.5742 4 51.2222 4C58.4789 4 65.0984 6.88854 70.1111 11.6389M89 94C73.3519 94 60.6667 80.5685 60.6667 64C60.6667 47.4315 73.3519 34 89 34C104.648 34 117.333 47.4315 117.333 64C117.333 80.5685 104.648 94 89 94Z" stroke="#1B3B50" stroke-width="8" stroke-linecap="round" stroke-linejoin="round"/>
</svg>
