<svg width="329" height="113" viewBox="0 0 329 113" fill="none" xmlns="http://www.w3.org/2000/svg">
<path d="M99.9229 56.0408C100.423 53.5515 98.4241 50.5644 95.926 50.5644L67.448 46.5816L54.458 20.6932C53.9584 19.6975 53.4588 19.1996 52.4595 18.7017C49.9615 17.2082 46.9638 18.2039 45.4649 20.6932L32.9746 46.5816L4.49653 50.5644C2.99769 50.5644 1.99846 51.0622 1.49884 52.058C-0.499615 54.0494 -0.499615 57.0365 1.49884 59.0279L21.983 78.9421L16.9869 107.32C16.9869 108.315 16.9869 109.311 17.4865 110.307C18.9854 112.796 21.983 113.792 24.4811 112.298L49.9615 98.8562L75.4418 112.298C75.9414 112.796 76.9407 112.796 77.9399 112.796C78.4395 112.796 78.4395 112.796 78.9391 112.796C81.4372 112.298 83.4356 109.809 82.936 106.822L77.9399 78.4442L98.4241 58.53C99.4233 58.0322 99.9229 57.0365 99.9229 56.0408Z" fill="#E1A05B"/>
<path d="M223.908 45.2485C224.503 42.2876 222.125 38.7345 219.152 38.7345L185.263 33.997L169.805 3.20344C169.21 2.01908 168.616 1.42689 167.427 0.834707C164.454 -0.941845 160.887 0.242523 159.103 3.20344L144.24 33.997L110.351 38.7345C108.567 38.7345 107.378 39.3267 106.784 40.511C104.405 42.8798 104.405 46.4329 106.784 48.8016L131.16 72.489L125.214 106.243C125.214 107.428 125.214 108.612 125.809 109.797C127.593 112.757 131.16 113.942 134.133 112.165L164.454 96.1763L194.776 112.165C195.37 112.757 196.559 112.757 197.748 112.757C198.343 112.757 198.343 112.757 198.938 112.757C201.91 112.165 204.288 109.204 203.694 105.651L197.748 71.8968L222.125 48.2094C223.314 47.6172 223.908 46.4329 223.908 45.2485Z" fill="#E1A05B"/>
<path d="M328.923 56.0408C329.423 53.5515 327.424 50.5644 324.926 50.5644L296.448 46.5816L283.458 20.6932C282.958 19.6975 282.459 19.1996 281.46 18.7017C278.961 17.2082 275.964 18.2039 274.465 20.6932L261.975 46.5816L233.497 50.5644C231.998 50.5644 230.998 51.0622 230.499 52.058C228.5 54.0494 228.5 57.0365 230.499 59.0279L250.983 78.9421L245.987 107.32C245.987 108.315 245.987 109.311 246.487 110.307C247.985 112.796 250.983 113.792 253.481 112.298L278.961 98.8562L304.442 112.298C304.941 112.796 305.941 112.796 306.94 112.796C307.439 112.796 307.439 112.796 307.939 112.796C310.437 112.298 312.436 109.809 311.936 106.822L306.94 78.4442L327.424 58.53C328.423 58.0322 328.923 57.0365 328.923 56.0408Z" fill="#E1A05B"/>
</svg>
