<svg width="100" height="95" viewBox="0 0 100 95" fill="none" xmlns="http://www.w3.org/2000/svg">
<path d="M99.9229 38.0408C100.423 35.5515 98.4241 32.5644 95.926 32.5644L67.448 28.5816L54.458 2.69316C53.9584 1.69745 53.4588 1.1996 52.4595 0.701745C49.9615 -0.791817 46.9638 0.203891 45.4649 2.69316L32.9746 28.5816L4.49653 32.5644C2.99769 32.5644 1.99846 33.0622 1.49884 34.058C-0.499615 36.0494 -0.499615 39.0365 1.49884 41.0279L21.983 60.9421L16.9869 89.3197C16.9869 90.3154 16.9869 91.3111 17.4865 92.3068C18.9854 94.7961 21.983 95.7918 24.4811 94.2983L49.9615 80.8562L75.4418 94.2983C75.9414 94.7961 76.9407 94.7961 77.9399 94.7961C78.4395 94.7961 78.4395 94.7961 78.9391 94.7961C81.4372 94.2983 83.4356 91.809 82.936 88.8219L77.9399 60.4442L98.4241 40.53C99.4233 40.0322 99.9229 39.0365 99.9229 38.0408Z" fill="#E1A05B"/>
</svg>
