<svg width="278" height="233" viewBox="0 0 278 233" fill="none" xmlns="http://www.w3.org/2000/svg">
<path d="M100.498 47.3333H50.0697C32.8947 47.3333 24.3008 47.3333 17.7409 50.6757C11.9706 53.6158 7.28258 58.3038 4.34247 64.0741C1 70.6341 1 79.228 1 96.4029V182.27C1 199.445 1 208.02 4.34247 214.58C7.28258 220.35 11.9706 225.054 17.7409 227.994C24.2944 231.333 32.8779 231.333 50.0193 231.333H227.981C245.122 231.333 253.693 231.333 260.247 227.994C266.017 225.054 270.721 220.35 273.661 214.58C277 208.026 277 199.455 277 182.314V96.3525C277 79.2112 277 70.6277 273.661 64.0741C270.721 58.3038 266.017 53.6158 260.247 50.6757C253.687 47.3333 245.111 47.3333 227.936 47.3333H177.499M100.498 47.3333H101.445M100.498 47.3333C100.69 47.3333 100.892 47.3333 101.105 47.3333L101.445 47.3333M100.498 47.3333C98.8705 47.3326 97.9587 47.3241 97.2376 47.2434C88.228 46.2347 82.0486 37.6591 83.9408 28.7928C84.1168 27.9677 84.4648 26.9237 85.154 24.8564L85.1836 24.7689C85.9706 22.4078 86.3642 21.2272 86.7989 20.1855C91.2499 9.51953 101.329 2.26596 112.855 1.41625C113.981 1.33325 115.218 1.33325 117.707 1.33325H160.292C162.78 1.33325 164.028 1.33325 165.153 1.41625C176.679 2.26596 186.748 9.51953 191.199 20.1855C191.634 21.2272 192.029 22.4065 192.816 24.7675C193.525 26.8938 193.88 27.9574 194.058 28.7942C195.95 37.6605 189.781 46.2347 180.771 47.2434C180.05 47.3241 179.129 47.3326 177.499 47.3333M101.445 47.3333H176.551M176.551 47.3333H177.499M176.551 47.3333L176.891 47.3333C177.105 47.3333 177.307 47.3333 177.499 47.3333M139 185.333C113.595 185.333 93 164.738 93 139.333C93 113.928 113.595 93.3333 139 93.3333C164.405 93.3333 185 113.928 185 139.333C185 164.738 164.405 185.333 139 185.333Z" stroke="#85D2E2" stroke-width="2" stroke-linecap="round" stroke-linejoin="round"/>
</svg>
