<svg width="282" height="282" viewBox="0 0 282 282" fill="none" xmlns="http://www.w3.org/2000/svg">
<path d="M265 63.5H231.654C223.942 63.5 218.5 55.7114 218.5 48C218.5 22.3188 197.681 1.5 172 1.5C146.319 1.5 125.5 22.3188 125.5 48C125.5 55.7114 120.057 63.5 112.346 63.5H79C70.4396 63.5 63.5 70.4396 63.5 79V112.346C63.5 120.057 55.7114 125.5 48 125.5C22.3188 125.5 1.5 146.319 1.5 172C1.5 197.681 22.3188 218.5 48 218.5C55.7114 218.5 63.5 223.942 63.5 231.654V265C63.5 273.56 70.4396 280.5 79 280.5L265 280.5C273.56 280.5 280.5 273.56 280.5 265V231.654C280.5 223.942 272.711 218.5 265 218.5C239.319 218.5 218.5 197.681 218.5 172C218.5 146.319 239.319 125.5 265 125.5C272.711 125.5 280.5 120.057 280.5 112.346L280.5 79C280.5 70.4396 273.56 63.5 265 63.5Z" stroke="#85D2E2" stroke-width="2" stroke-linecap="round" stroke-linejoin="round"/>
</svg>
