<svg width="40" height="40" viewBox="0 0 40 40" fill="none" xmlns="http://www.w3.org/2000/svg">
<path d="M6.66667 10.0002L16.8461 17.6873L16.8495 17.6901C17.9797 18.519 18.5452 18.9337 19.1646 19.0939C19.712 19.2355 20.2875 19.2355 20.835 19.0939C21.4549 18.9335 22.022 18.5176 23.1543 17.6873C23.1543 17.6873 29.6835 12.6767 33.3333 10.0002M5 26.3338V13.6672C5 11.8003 5 10.8662 5.36331 10.1532C5.68289 9.52595 6.19245 9.01639 6.81966 8.69681C7.5327 8.3335 8.46682 8.3335 10.3337 8.3335H29.667C31.5338 8.3335 32.466 8.3335 33.179 8.69681C33.8062 9.01639 34.3175 9.52595 34.637 10.1532C35 10.8655 35 11.7985 35 13.6617V26.3395C35 28.2026 35 29.1343 34.637 29.8466C34.3175 30.4738 33.8062 30.9843 33.179 31.3039C32.4667 31.6668 31.535 31.6668 29.6718 31.6668H10.3282C8.46499 31.6668 7.532 31.6668 6.81966 31.3039C6.19245 30.9843 5.68289 30.4738 5.36331 29.8466C5 29.1336 5 28.2007 5 26.3338Z" stroke="#E1A05B" stroke-width="2" stroke-linecap="round" stroke-linejoin="round"/>
</svg>
