<svg width="38" height="38" viewBox="0 0 38 38" fill="none" xmlns="http://www.w3.org/2000/svg">
<path d="M13.1667 7.33333H13.8217C14.2973 7.33333 14.5353 7.33333 14.759 7.38706C14.9574 7.43469 15.1479 7.51345 15.3219 7.62006C15.518 7.74027 15.6865 7.90871 16.0226 8.24479L21.9779 14.2001C22.3142 14.5364 22.4814 14.7036 22.6016 14.8998C22.7083 15.0738 22.7881 15.264 22.8357 15.4624C22.8889 15.6839 22.8889 15.9191 22.8889 16.385V30.6667M13.1667 7.33333H4.61035C3.52136 7.33333 2.97741 7.33333 2.56147 7.54526C2.1956 7.73168 1.89835 8.02893 1.71193 8.3948C1.5 8.81074 1.5 9.35564 1.5 10.4446V33.3891C1.5 34.4781 1.5 35.0218 1.71193 35.4377C1.89835 35.8036 2.1956 36.1019 2.56147 36.2883C2.97701 36.5 3.52032 36.5 4.60722 36.5L19.7798 36.5C20.8667 36.5 21.412 36.5 21.8276 36.2883C22.1934 36.1019 22.4898 35.8041 22.6762 35.4382C22.8881 35.0223 22.8889 34.4776 22.8889 33.3886V30.6667M13.1667 7.33333V13.9444C13.1667 15.0334 13.1667 15.5775 13.3786 15.9935C13.565 16.3594 13.8623 16.6574 14.2281 16.8438C14.6437 17.0556 15.187 17.0556 16.2738 17.0556H22.8881M15.1111 7.33352V4.6113C15.1111 3.52231 15.1111 2.97741 15.323 2.56147C15.5095 2.1956 15.8067 1.89835 16.1726 1.71193C16.5885 1.5 17.1325 1.5 18.2215 1.5H26.7778M26.7778 1.5H27.4328C27.9084 1.5 28.1464 1.5 28.3701 1.55373C28.5686 1.60136 28.759 1.68012 28.933 1.78673C29.1292 1.90694 29.2976 2.07539 29.6337 2.41146L35.589 8.36679C35.9253 8.70308 36.0925 8.87029 36.2128 9.06652C36.3194 9.24049 36.3992 9.43066 36.4468 9.62907C36.5 9.85057 36.5 10.0857 36.5 10.5517V27.5553C36.5 28.6443 36.4993 29.1889 36.2873 29.6049C36.1009 29.9708 35.8057 30.2685 35.4398 30.4549C35.0243 30.6667 34.4797 30.6667 33.3928 30.6667H22.8889M26.7778 1.5V8.11111C26.7778 9.2001 26.7778 9.74422 26.9897 10.1602C27.1761 10.526 27.4734 10.8241 27.8392 11.0105C28.2548 11.2222 28.7981 11.2222 29.8849 11.2222H36.4992" stroke="#FBFBFB" stroke-width="3" stroke-linecap="round" stroke-linejoin="round"/>
</svg>
