<svg width="282" height="282" viewBox="0 0 282 282" fill="none" xmlns="http://www.w3.org/2000/svg">
<path d="M94.5 48H99.7215C103.513 48 105.41 48 107.193 48.4283C108.775 48.808 110.293 49.4358 111.68 50.2856C113.244 51.2439 114.587 52.5866 117.266 55.2656L164.738 102.738C167.419 105.419 168.752 106.752 169.71 108.316C170.56 109.703 171.196 111.219 171.576 112.8C172 114.566 172 116.441 172 120.155V234M94.5 48H26.2939C17.6131 48 13.2771 48 9.96143 49.6894C7.04491 51.1754 4.67544 53.5449 3.1894 56.4614C1.5 59.7771 1.5 64.1207 1.5 72.8015V255.702C1.5 264.382 1.5 268.717 3.1894 272.032C4.67544 274.949 7.04491 277.326 9.96143 278.812C13.2739 280.5 17.6048 280.5 26.269 280.5L147.216 280.5C155.88 280.5 160.227 280.5 163.54 278.812C166.456 277.326 168.819 274.953 170.305 272.036C171.994 268.72 172 264.379 172 255.698V234M94.5 48V100.7C94.5 109.381 94.5 113.718 96.1894 117.034C97.6754 119.95 100.045 122.326 102.961 123.812C106.274 125.5 110.605 125.5 119.269 125.5H171.994M110 48.0015V26.3015C110 17.6207 110 13.2771 111.689 9.96143C113.175 7.04491 115.545 4.67544 118.461 3.1894C121.777 1.5 126.113 1.5 134.794 1.5H203M203 1.5H208.221C212.013 1.5 213.91 1.5 215.693 1.92827C217.275 2.30797 218.793 2.9358 220.18 3.78564C221.744 4.74387 223.087 6.08669 225.766 8.76562L273.238 56.2381C275.919 58.9189 277.252 60.2518 278.21 61.816C279.06 63.2028 279.696 64.7187 280.076 66.3003C280.5 68.0659 280.5 69.9405 280.5 73.6549V209.198C280.5 217.879 280.494 222.22 278.805 225.536C277.319 228.453 274.965 230.826 272.049 232.312C268.737 234 264.395 234 255.732 234H172M203 1.5V54.2C203 62.8808 203 67.2182 204.689 70.5338C206.175 73.4503 208.545 75.8262 211.461 77.3123C214.774 79 219.105 79 227.769 79H280.494" stroke="#85D2E2" stroke-width="2" stroke-linecap="round" stroke-linejoin="round"/>
</svg>
