<svg width="162" height="162" viewBox="0 0 162 162" fill="none" xmlns="http://www.w3.org/2000/svg">
<path d="M55.1012 29.5506H57.9702C60.0534 29.5506 61.0957 29.5506 62.0759 29.7859C62.9449 29.9945 63.7792 30.3395 64.5412 30.8065C65.4005 31.333 66.1383 32.0708 67.6103 33.5429L93.6953 59.6278C95.1682 61.1008 95.9006 61.8332 96.4273 62.6927C96.8943 63.4547 97.244 64.2877 97.4526 65.1567C97.6855 66.1269 97.6855 67.157 97.6855 69.1979V131.753M55.1012 29.5506H17.6237C12.8538 29.5506 10.4712 29.5506 8.64934 30.4789C7.04679 31.2954 5.74482 32.5974 4.92828 34.1999C4 36.0218 4 38.4085 4 43.1784V143.677C4 148.447 4 150.829 4.92828 152.651C5.74482 154.253 7.04679 155.56 8.64934 156.376C10.4694 157.304 12.8492 157.303 17.6099 157.303L84.0675 157.303C88.8281 157.303 91.2167 157.303 93.0368 156.376C94.6394 155.56 95.9374 154.255 96.7539 152.653C97.6822 150.831 97.6855 148.445 97.6855 143.675V131.753M55.1012 29.5506V58.5079C55.1012 63.2778 55.1012 65.6611 56.0294 67.4829C56.846 69.0855 58.148 70.391 59.7505 71.2075C61.5706 72.1349 63.9503 72.1349 68.7108 72.1349H97.6822M63.618 29.5514V17.6278C63.618 12.8579 63.618 10.4712 64.5463 8.64934C65.3629 7.04679 66.6648 5.74482 68.2674 4.92828C70.0892 4 72.4718 4 77.2417 4H114.719M114.719 4H117.588C119.671 4 120.714 4 121.694 4.23532C122.563 4.44396 123.397 4.78894 124.159 5.2559C125.018 5.78242 125.756 6.52027 127.228 7.99228L153.313 34.0772C154.786 35.5502 155.519 36.2826 156.045 37.1421C156.512 37.9041 156.862 38.7371 157.071 39.6061C157.304 40.5763 157.304 41.6064 157.303 43.6473V118.125C157.303 122.895 157.3 125.28 156.372 127.102C155.555 128.705 154.262 130.009 152.66 130.826C150.84 131.753 148.454 131.753 143.694 131.753H97.6855M114.719 4V32.9573C114.719 37.7272 114.719 40.1105 115.647 41.9324C116.464 43.5349 117.766 44.8404 119.369 45.6569C121.189 46.5843 123.568 46.5843 128.329 46.5843H157.3" stroke="#1B3B50" stroke-width="8" stroke-linecap="round" stroke-linejoin="round"/>
</svg>
