<svg width="26" height="26" viewBox="0 0 26 26" fill="none" xmlns="http://www.w3.org/2000/svg">
<path d="M9 5H9.44916C9.77528 5 9.93846 5 10.0919 5.03684C10.228 5.0695 10.3586 5.12351 10.4779 5.19661C10.6124 5.27904 10.7279 5.39455 10.9583 5.625L15.042 9.70865C15.2726 9.93925 15.3872 10.0539 15.4697 10.1885C15.5428 10.3078 15.5975 10.4382 15.6302 10.5742C15.6667 10.7261 15.6667 10.8874 15.6667 11.2069V21M9 5H3.13281C2.38608 5 2.01308 5 1.72786 5.14532C1.47698 5.27316 1.27316 5.47698 1.14532 5.72786C1 6.01308 1 6.38673 1 7.13346V22.8668C1 23.6135 1 23.9864 1.14532 24.2716C1.27316 24.5225 1.47698 24.727 1.72786 24.8548C2.01281 25 2.38536 25 3.13066 25L13.5347 25C14.28 25 14.654 25 14.9389 24.8548C15.1898 24.727 15.393 24.5228 15.5208 24.2719C15.6662 23.9867 15.6667 23.6132 15.6667 22.8665V21M9 5V9.53333C9 10.2801 9 10.6532 9.14532 10.9384C9.27316 11.1893 9.47698 11.3937 9.72786 11.5215C10.0128 11.6667 10.3853 11.6667 11.1306 11.6667H15.6661M10.3333 5.00013V3.13346C10.3333 2.38673 10.3333 2.01308 10.4787 1.72786C10.6065 1.47698 10.8103 1.27316 11.0612 1.14532C11.3464 1 11.7194 1 12.4661 1H18.3333M18.3333 1H18.7825C19.1086 1 19.2718 1 19.4252 1.03684C19.5613 1.0695 19.6919 1.12351 19.8112 1.19661C19.9457 1.27904 20.0612 1.39455 20.2917 1.625L24.3753 5.70865C24.6059 5.93926 24.7206 6.05391 24.803 6.18847C24.8761 6.30777 24.9309 6.43817 24.9635 6.57422C25 6.7261 25 6.88736 25 7.20687V18.8665C25 19.6132 24.9995 19.9867 24.8542 20.2719C24.7263 20.5228 24.5239 20.727 24.273 20.8548C23.9881 21 23.6147 21 22.8694 21H15.6667M18.3333 1V5.53333C18.3333 6.28007 18.3333 6.65318 18.4787 6.93839C18.6065 7.18928 18.8103 7.39365 19.0612 7.52148C19.3461 7.66667 19.7187 7.66667 20.464 7.66667H24.9995" stroke="#1B3B50" stroke-width="2" stroke-linecap="round" stroke-linejoin="round"/>
</svg>
