<svg width="32" height="32" viewBox="0 0 32 32" fill="none" xmlns="http://www.w3.org/2000/svg">
<path d="M13.7135 17.9335L21.7904 9.85661M30.0527 4.92741L23.2349 27.0851C22.624 29.0708 22.3182 30.0641 21.7913 30.3934C21.3342 30.679 20.7682 30.7267 20.2704 30.5202C19.6964 30.282 19.2305 29.3518 18.3011 27.493L13.9828 18.8564C13.8353 18.5615 13.7615 18.4146 13.663 18.2868C13.5756 18.1734 13.4747 18.0712 13.3613 17.9838C13.2364 17.8875 13.092 17.8153 12.8101 17.6744L4.15373 13.3462C2.29488 12.4168 1.36538 11.9516 1.1272 11.3776C0.920633 10.8798 0.967741 10.3133 1.25334 9.85624C1.58265 9.32919 2.57591 9.023 4.56226 8.41181L26.7199 1.59408C28.2815 1.11359 29.0626 0.873531 29.5901 1.06717C30.0495 1.23584 30.4117 1.59769 30.5804 2.05713C30.7739 2.58434 30.5337 3.36506 30.0537 4.92511L30.0527 4.92741Z" stroke="#E1A05B" stroke-width="2" stroke-linecap="round" stroke-linejoin="round"/>
</svg>
