<svg width="45" height="31" viewBox="0 0 45 31" fill="none" xmlns="http://www.w3.org/2000/svg">
<path d="M2.21429 4.42857H42.0714C42.6587 4.42857 43.2219 4.19528 43.6372 3.78002C44.0524 3.36476 44.2857 2.80155 44.2857 2.21429C44.2857 1.62702 44.0524 1.06381 43.6372 0.64855C43.2219 0.233291 42.6587 0 42.0714 0H2.21429C1.62702 0 1.06381 0.233291 0.648549 0.64855C0.23329 1.06381 0 1.62702 0 2.21429C0 2.80155 0.23329 3.36476 0.648549 3.78002C1.06381 4.19528 1.62702 4.42857 2.21429 4.42857ZM42.0714 13.2857H2.21429C1.62702 13.2857 1.06381 13.519 0.648549 13.9343C0.23329 14.3495 0 14.9127 0 15.5C0 16.0873 0.23329 16.6505 0.648549 17.0657C1.06381 17.481 1.62702 17.7143 2.21429 17.7143H42.0714C42.6587 17.7143 43.2219 17.481 43.6372 17.0657C44.0524 16.6505 44.2857 16.0873 44.2857 15.5C44.2857 14.9127 44.0524 14.3495 43.6372 13.9343C43.2219 13.519 42.6587 13.2857 42.0714 13.2857ZM42.0714 26.5714H2.21429C1.62702 26.5714 1.06381 26.8047 0.648549 27.22C0.23329 27.6352 0 28.1984 0 28.7857C0 29.373 0.23329 29.9362 0.648549 30.3515C1.06381 30.7667 1.62702 31 2.21429 31H42.0714C42.6587 31 43.2219 30.7667 43.6372 30.3515C44.0524 29.9362 44.2857 29.373 44.2857 28.7857C44.2857 28.1984 44.0524 27.6352 43.6372 27.22C43.2219 26.8047 42.6587 26.5714 42.0714 26.5714Z" fill="#19364A"/>
</svg>
