<svg width="27" height="31" viewBox="0 0 27 31" fill="none" xmlns="http://www.w3.org/2000/svg">
<path d="M18.1243 23.2083V24.75C18.1243 27.3043 16.0537 29.375 13.4993 29.375C10.945 29.375 8.87435 27.3043 8.87435 24.75V23.2083M18.1243 23.2083H8.87435M18.1243 23.2083H23.6597C24.2494 23.2083 24.5457 23.2083 24.7845 23.1278C25.2406 22.9739 25.5975 22.6158 25.7514 22.1597C25.8323 21.9199 25.8323 21.6227 25.8323 21.0283C25.8323 20.7682 25.832 20.6382 25.8116 20.5142C25.7731 20.2798 25.6822 20.0577 25.5437 19.8648C25.4705 19.7629 25.3775 19.6699 25.1941 19.4865L24.5936 18.8859C24.3999 18.6922 24.291 18.4294 24.291 18.1554V12.4167C24.291 6.45658 19.4594 1.62499 13.4993 1.625C7.53929 1.62501 2.70768 6.4566 2.70768 12.4167V18.1554C2.70768 18.4294 2.5986 18.6922 2.40485 18.8859L1.80436 19.4864C1.62043 19.6704 1.52837 19.7628 1.45508 19.8648C1.31657 20.0577 1.22482 20.2798 1.18637 20.5142C1.16602 20.6382 1.16602 20.7682 1.16602 21.0284C1.16602 21.6227 1.16602 21.9199 1.24688 22.1596C1.40073 22.6157 1.75925 22.9739 2.21537 23.1278C2.45417 23.2083 2.74933 23.2083 3.33908 23.2083H8.87435" stroke="black" stroke-width="2" stroke-linecap="round" stroke-linejoin="round"/>
</svg>
