<svg width="33" height="23" viewBox="0 0 33 23" fill="none" xmlns="http://www.w3.org/2000/svg">
<path d="M2.81017 14.3256C5.69335 17.1919 10.7216 21.1649 16.4422 21.1649C22.1629 21.1649 27.1901 17.1919 30.0733 14.3256C30.8337 13.5696 31.2152 13.1903 31.4573 12.4481C31.6301 11.9186 31.6301 10.9682 31.4573 10.4386C31.2152 9.6964 30.8338 9.31708 30.0733 8.56107C27.1901 5.69475 22.1629 1.72168 16.4422 1.72168C10.7216 1.72168 5.69335 5.69475 2.81017 8.56107C2.04918 9.31761 1.66866 9.69614 1.42644 10.4386C1.25369 10.9682 1.25369 11.9186 1.42644 12.4481C1.66866 13.1906 2.04918 13.569 2.81017 14.3256Z" stroke="black" stroke-width="2" stroke-linecap="round" stroke-linejoin="round"/>
<path d="M13.2014 11.4434C13.2014 13.2331 14.6522 14.6839 16.4419 14.6839C18.2317 14.6839 19.6825 13.2331 19.6825 11.4434C19.6825 9.65366 18.2317 8.20281 16.4419 8.20281C14.6522 8.20281 13.2014 9.65366 13.2014 11.4434Z" stroke="black" stroke-width="2" stroke-linecap="round" stroke-linejoin="round"/>
</svg>
