<svg width="20" height="16" viewBox="0 0 20 16" fill="none" xmlns="http://www.w3.org/2000/svg">
<path d="M2.36 15.4H16.84C17.08 15.4 17.28 15.2 17.28 14.96V13.88H1.92V14.96C1.92 15.24 2.12 15.4 2.36 15.4ZM18 2.6C17.32 2.6 16.8 3.12 16.8 3.8C16.8 4.12 16.92 4.44 17.16 4.64L13.56 8.32L10.16 2.24C10.52 2.04 10.76 1.64 10.76 1.2C10.76 0.52 10.24 0 9.56 0C8.88 0 8.36 0.52 8.36 1.2C8.36 1.64 8.6 2.04 8.96 2.24L5.56 8.32L1.96 4.64C2.28 4.44 2.4 4.12 2.4 3.8C2.4 3.12 1.88 2.6 1.2 2.6C0.52 2.6 0 3.12 0 3.8C0 4.48 0.52 5 1.2 5C1.24 5 1.28 5 1.28 5L1.92 13.16H17.28L17.92 5C17.96 5 18 5 18 5C18.68 5 19.2 4.48 19.2 3.8C19.2 3.16 18.68 2.6 18 2.6Z" fill="#E1A05B"/>
</svg>
